<svg xmlns="http://www.w3.org/2000/svg" width="100" height="100" viewBox="0 0 100 100">
<path d="M15 27C25 8 59 6 79 21C97 35 95 68 78 83C59 98 26 90 13 72C4 57 6 42 15 27Z" fill="#F3E5D5"/>
<ellipse cx="51" cy="79" rx="28" ry="4" fill="#DFCCB5"/>
<path d="M26 43H67V59C67 72 59 77 47 77C34 77 26 69 26 58Z" fill="#FFFCF7" stroke="#73533D" stroke-width="3" stroke-linejoin="round"/>
<path d="M68 46H72C87 46 85 63 68 63M22 79H72" fill="none" stroke="#73533D" stroke-width="3" stroke-linecap="round"/>
<path d="M38 34C30 27 45 25 39 18M51 35C44 28 58 26 52 20" fill="none" stroke="#A28363" stroke-width="2.8" stroke-linecap="round"/>
<path d="M33 51H58" stroke="#D6B996" stroke-width="3" stroke-linecap="round"/>
<circle cx="78" cy="24" r="5" fill="#CB936C"/>
</svg>
