<svg xmlns="http://www.w3.org/2000/svg" width="100" height="100" viewBox="0 0 100 100">
<path d="M18 21C38 6 72 6 87 27C101 48 90 77 68 88C44 99 18 83 11 65C5 49 6 34 18 21Z" fill="#E1EDE6"/>
<path d="M18 36L38 29L61 37L82 30V76L61 83L38 75L18 82Z" fill="#FBFCF6" stroke="#4E7666" stroke-width="3" stroke-linejoin="round"/>
<path d="M38 30V74M61 38V82" stroke="#ACC6B7" stroke-width="2.5"/>
<path d="M26 66C42 43 47 74 70 56" fill="none" stroke="#BB9F65" stroke-width="3" stroke-linecap="round" stroke-dasharray="3 6"/>
<path d="M72 15C60 15 57 30 72 43C87 30 84 15 72 15Z" fill="#DCA78C" stroke="#7E6657" stroke-width="2.5"/>
<circle cx="72" cy="26" r="4" fill="#FFF9EC"/>
</svg>
