<svg xmlns="http://www.w3.org/2000/svg" width="100" height="100" viewBox="0 0 100 100"><rect width="100" height="100" fill="#DBE6F2"/><ellipse cx="50" cy="103" rx="42" ry="17" fill="#00000008"/><ellipse cx="50" cy="104" rx="34" ry="28" fill="#53657C"/><ellipse cx="50" cy="103" rx="20" ry="23" fill="#FAEED8"/><ellipse cx="50" cy="53" rx="31" ry="36" fill="#53657C"/><path d="M26 58 C20 31 42 26 50 41 C58 26 80 31 74 58 Q77 85 50 86 Q23 85 26 58Z" fill="#FAEED8" /><ellipse cx="38" cy="54" rx="2.5" ry="3.2" fill="#393C3B"/><ellipse cx="62" cy="54" rx="2.5" ry="3.2" fill="#393C3B"/><ellipse cx="29" cy="64" rx="4" ry="2.5" fill="#D58F8E"/><ellipse cx="71" cy="64" rx="4" ry="2.5" fill="#D58F8E"/><path d="M44 64 Q50 60 56 64 L50 70Z" fill="#D9A064" /></svg>
