<svg xmlns="http://www.w3.org/2000/svg" width="1200" height="1110" viewBox="0 0 1200 1110"><rect width="1200" height="1110" fill="#FCFAF6"/><text x="64" y="76" font-family="Helvetica, Arial" font-size="35" font-weight="700" fill="#393C3B">SideSeat / Little Companions</text><text x="64" y="110" font-family="Helvetica, Arial" font-size="17" fill="#777C77">20 original system avatars · made to feel familiar, even at 32 px</text><svg x="70" y="155" width="164" height="164" viewBox="0 0 100 100"><defs><clipPath id="c0"><circle cx="50" cy="50" r="50"/></clipPath></defs><g clip-path="url(#c0)"><rect width="100" height="100" fill="#F6DEDA"/><ellipse cx="50" cy="103" rx="42" ry="17" fill="#00000008"/><ellipse cx="50" cy="104" rx="34" ry="28" fill="#EAC2A0"/><ellipse cx="50" cy="103" rx="20" ry="23" fill="#F9EDD8"/><path d="M22 48 Q16 20 22 18 Q37 22 42 35Z" fill="#EAC2A0" /><path d="M78 48 Q84 20 78 18 Q63 22 58 35Z" fill="#EAC2A0" /><path d="M24 38 L24 25 L35 35Z" fill="#D58F8E" /><path d="M76 38 L76 25 L65 35Z" fill="#D58F8E" /><ellipse cx="50" cy="57" rx="31" ry="28" fill="#EAC2A0"/><path d="M42 30 L46 42 L49 30 M52 30 L55 42 L59 31" fill="#F9EDD8" /><ellipse cx="50" cy="68" rx="15" ry="10" fill="#F9EDD8"/><ellipse cx="38" cy="54" rx="2.5" ry="3.2" fill="#393C3B"/><ellipse cx="62" cy="54" rx="2.5" ry="3.2" fill="#393C3B"/><ellipse cx="29" cy="64" rx="4" ry="2.5" fill="#D58F8E"/><ellipse cx="71" cy="64" rx="4" ry="2.5" fill="#D58F8E"/><path d="M46 64 Q50 61 54 64 Q53 68 50 68 Q47 68 46 64Z" fill="#393C3B" /><path d="M50 68 L50 71 M44 71 Q47 75 50 71 Q53 75 56 71" fill="none" stroke="#393C3B" stroke-width="1.6" stroke-linecap="round"/></g></svg><text x="152" y="349" text-anchor="middle" font-family="Helvetica, Arial" font-size="17" fill="#393C3B">Peach cat</text><svg x="295" y="155" width="164" height="164" viewBox="0 0 100 100"><defs><clipPath id="c1"><circle cx="50" cy="50" r="50"/></clipPath></defs><g clip-path="url(#c1)"><rect width="100" height="100" fill="#DCE9DE"/><ellipse cx="50" cy="103" rx="42" ry="17" fill="#00000008"/><ellipse cx="50" cy="104" rx="34" ry="28" fill="#F8F0DE"/><ellipse cx="50" cy="103" rx="20" ry="23" fill="#D0B7AA"/><ellipse cx="35" cy="29" rx="10" ry="23" fill="#F8F0DE"/><ellipse cx="65" cy="29" rx="10" ry="23" fill="#F8F0DE"/><ellipse cx="35" cy="28" rx="4" ry="15" fill="#D58F8E"/><ellipse cx="65" cy="28" rx="4" ry="15" fill="#D58F8E"/><ellipse cx="50" cy="62" rx="28" ry="26" fill="#F8F0DE"/><ellipse cx="38" cy="58" rx="2.5" ry="3.2" fill="#393C3B"/><ellipse cx="62" cy="58" rx="2.5" ry="3.2" fill="#393C3B"/><ellipse cx="29" cy="64" rx="4" ry="2.5" fill="#D58F8E"/><ellipse cx="71" cy="64" rx="4" ry="2.5" fill="#D58F8E"/><path d="M46 64 Q50 61 54 64 Q53 68 50 68 Q47 68 46 64Z" fill="#393C3B" /><path d="M50 68 L50 71 M44 71 Q47 75 50 71 Q53 75 56 71" fill="none" stroke="#393C3B" stroke-width="1.6" stroke-linecap="round"/></g></svg><text x="377" y="349" text-anchor="middle" font-family="Helvetica, Arial" font-size="17" fill="#393C3B">Mint rabbit</text><svg x="520" y="155" width="164" height="164" viewBox="0 0 100 100"><defs><clipPath id="c2"><circle cx="50" cy="50" r="50"/></clipPath></defs><g clip-path="url(#c2)"><rect width="100" height="100" fill="#F2E3BF"/><ellipse cx="50" cy="103" rx="42" ry="17" fill="#00000008"/><ellipse cx="50" cy="104" rx="34" ry="28" fill="#B98359"/><ellipse cx="50" cy="103" rx="20" ry="23" fill="#EDD3AF"/><ellipse cx="25" cy="35" rx="12" ry="12" fill="#B98359"/><ellipse cx="75" cy="35" rx="12" ry="12" fill="#B98359"/><ellipse cx="25" cy="35" rx="6.36" ry="6.6000000000000005" fill="#EDD3AF"/><ellipse cx="75" cy="35" rx="6.36" ry="6.6000000000000005" fill="#EDD3AF"/><ellipse cx="50" cy="57" rx="31" ry="28" fill="#B98359"/><ellipse cx="50" cy="68" rx="15" ry="10" fill="#EDD3AF"/><ellipse cx="38" cy="54" rx="2.5" ry="3.2" fill="#393C3B"/><ellipse cx="62" cy="54" rx="2.5" ry="3.2" fill="#393C3B"/><ellipse cx="29" cy="64" rx="4" ry="2.5" fill="#D58F8E"/><ellipse cx="71" cy="64" rx="4" ry="2.5" fill="#D58F8E"/><path d="M46 64 Q50 61 54 64 Q53 68 50 68 Q47 68 46 64Z" fill="#393C3B" /><path d="M50 68 L50 71 M44 71 Q47 75 50 71 Q53 75 56 71" fill="none" stroke="#393C3B" stroke-width="1.6" stroke-linecap="round"/></g></svg><text x="602" y="349" text-anchor="middle" font-family="Helvetica, Arial" font-size="17" fill="#393C3B">Honey bear</text><svg x="745" y="155" width="164" height="164" viewBox="0 0 100 100"><defs><clipPath id="c3"><circle cx="50" cy="50" r="50"/></clipPath></defs><g clip-path="url(#c3)"><rect width="100" height="100" fill="#DFE9E4"/><ellipse cx="50" cy="103" rx="42" ry="17" fill="#00000008"/><ellipse cx="50" cy="104" rx="34" ry="28" fill="#D7996B"/><ellipse cx="50" cy="103" rx="20" ry="23" fill="#FFF0D8"/><path d="M22 48 Q16 20 22 18 Q37 22 42 35Z" fill="#D7996B" /><path d="M78 48 Q84 20 78 18 Q63 22 58 35Z" fill="#D7996B" /><path d="M24 38 L24 25 L35 35Z" fill="#393C3B" /><path d="M76 38 L76 25 L65 35Z" fill="#393C3B" /><ellipse cx="50" cy="57" rx="31" ry="28" fill="#D7996B"/><path d="M20 51 Q33 47 50 70 Q67 47 80 51 Q76 83 50 87 Q24 83 20 51Z" fill="#FFF0D8" /><ellipse cx="38" cy="54" rx="2.5" ry="3.2" fill="#393C3B"/><ellipse cx="62" cy="54" rx="2.5" ry="3.2" fill="#393C3B"/><ellipse cx="29" cy="64" rx="4" ry="2.5" fill="#D58F8E"/><ellipse cx="71" cy="64" rx="4" ry="2.5" fill="#D58F8E"/><path d="M46 64 Q50 61 54 64 Q53 68 50 68 Q47 68 46 64Z" fill="#393C3B" /><path d="M50 68 L50 71 M44 71 Q47 75 50 71 Q53 75 56 71" fill="none" stroke="#393C3B" stroke-width="1.6" stroke-linecap="round"/></g></svg><text x="827" y="349" text-anchor="middle" font-family="Helvetica, Arial" font-size="17" fill="#393C3B">Apricot fox</text><svg x="970" y="155" width="164" height="164" viewBox="0 0 100 100"><defs><clipPath id="c4"><circle cx="50" cy="50" r="50"/></clipPath></defs><g clip-path="url(#c4)"><rect width="100" height="100" fill="#E2E1EF"/><ellipse cx="50" cy="103" rx="42" ry="17" fill="#00000008"/><ellipse cx="50" cy="104" rx="34" ry="28" fill="#9CAEB6"/><ellipse cx="50" cy="103" rx="20" ry="23" fill="#E8E7E2"/><ellipse cx="25" cy="35" rx="16" ry="16" fill="#9CAEB6"/><ellipse cx="75" cy="35" rx="16" ry="16" fill="#9CAEB6"/><ellipse cx="25" cy="35" rx="8.48" ry="8.8" fill="#E8E7E2"/><ellipse cx="75" cy="35" rx="8.48" ry="8.8" fill="#E8E7E2"/><ellipse cx="50" cy="57" rx="31" ry="28" fill="#9CAEB6"/><ellipse cx="38" cy="54" rx="2.5" ry="3.2" fill="#393C3B"/><ellipse cx="62" cy="54" rx="2.5" ry="3.2" fill="#393C3B"/><ellipse cx="29" cy="64" rx="4" ry="2.5" fill="#D58F8E"/><ellipse cx="71" cy="64" rx="4" ry="2.5" fill="#D58F8E"/><ellipse cx="50" cy="64" rx="6" ry="8" fill="#393C3B"/></g></svg><text x="1052" y="349" text-anchor="middle" font-family="Helvetica, Arial" font-size="17" fill="#393C3B">Cloud koala</text><svg x="70" y="386" width="164" height="164" viewBox="0 0 100 100"><defs><clipPath id="c5"><circle cx="50" cy="50" r="50"/></clipPath></defs><g clip-path="url(#c5)"><rect width="100" height="100" fill="#DDE8D1"/><ellipse cx="50" cy="103" rx="42" ry="17" fill="#00000008"/><ellipse cx="50" cy="104" rx="34" ry="28" fill="#FCF5E5"/><ellipse cx="50" cy="103" rx="20" ry="23" fill="#FCF5E5"/><ellipse cx="25" cy="35" rx="12" ry="12" fill="#515F59"/><ellipse cx="75" cy="35" rx="12" ry="12" fill="#515F59"/><ellipse cx="50" cy="57" rx="31" ry="28" fill="#FCF5E5"/><ellipse cx="37" cy="53" rx="9" ry="11" fill="#515F59"/><ellipse cx="63" cy="53" rx="9" ry="11" fill="#515F59"/><ellipse cx="38" cy="54" rx="2.5" ry="3.2" fill="#FFF8E9"/><ellipse cx="62" cy="54" rx="2.5" ry="3.2" fill="#FFF8E9"/><path d="M46 64 Q50 61 54 64 Q53 68 50 68 Q47 68 46 64Z" fill="#393C3B" /><path d="M50 68 L50 71 M44 71 Q47 75 50 71 Q53 75 56 71" fill="none" stroke="#393C3B" stroke-width="1.6" stroke-linecap="round"/></g></svg><text x="152" y="580" text-anchor="middle" font-family="Helvetica, Arial" font-size="17" fill="#393C3B">Bamboo panda</text><svg x="295" y="386" width="164" height="164" viewBox="0 0 100 100"><defs><clipPath id="c6"><circle cx="50" cy="50" r="50"/></clipPath></defs><g clip-path="url(#c6)"><rect width="100" height="100" fill="#EBDDD1"/><ellipse cx="50" cy="103" rx="42" ry="17" fill="#00000008"/><ellipse cx="50" cy="104" rx="34" ry="28" fill="#986F54"/><ellipse cx="50" cy="103" rx="20" ry="23" fill="#E9D0AC"/><ellipse cx="25" cy="35" rx="9" ry="9" fill="#986F54"/><ellipse cx="75" cy="35" rx="9" ry="9" fill="#986F54"/><ellipse cx="25" cy="35" rx="4.7700000000000005" ry="4.95" fill="#E9D0AC"/><ellipse cx="75" cy="35" rx="4.7700000000000005" ry="4.95" fill="#E9D0AC"/><ellipse cx="50" cy="57" rx="31" ry="28" fill="#986F54"/><ellipse cx="50" cy="68" rx="15" ry="10" fill="#E9D0AC"/><ellipse cx="38" cy="54" rx="2.5" ry="3.2" fill="#393C3B"/><ellipse cx="62" cy="54" rx="2.5" ry="3.2" fill="#393C3B"/><ellipse cx="29" cy="64" rx="4" ry="2.5" fill="#D58F8E"/><ellipse cx="71" cy="64" rx="4" ry="2.5" fill="#D58F8E"/><path d="M46 64 Q50 61 54 64 Q53 68 50 68 Q47 68 46 64Z" fill="#393C3B" /><path d="M50 68 L50 71 M44 71 Q47 75 50 71 Q53 75 56 71" fill="none" stroke="#393C3B" stroke-width="1.6" stroke-linecap="round"/></g></svg><text x="377" y="580" text-anchor="middle" font-family="Helvetica, Arial" font-size="17" fill="#393C3B">Cocoa otter</text><svg x="520" y="386" width="164" height="164" viewBox="0 0 100 100"><defs><clipPath id="c7"><circle cx="50" cy="50" r="50"/></clipPath></defs><g clip-path="url(#c7)"><rect width="100" height="100" fill="#DBE6F2"/><ellipse cx="50" cy="103" rx="42" ry="17" fill="#00000008"/><ellipse cx="50" cy="104" rx="34" ry="28" fill="#53657C"/><ellipse cx="50" cy="103" rx="20" ry="23" fill="#FAEED8"/><ellipse cx="50" cy="53" rx="31" ry="36" fill="#53657C"/><path d="M26 58 C20 31 42 26 50 41 C58 26 80 31 74 58 Q77 85 50 86 Q23 85 26 58Z" fill="#FAEED8" /><ellipse cx="38" cy="54" rx="2.5" ry="3.2" fill="#393C3B"/><ellipse cx="62" cy="54" rx="2.5" ry="3.2" fill="#393C3B"/><ellipse cx="29" cy="64" rx="4" ry="2.5" fill="#D58F8E"/><ellipse cx="71" cy="64" rx="4" ry="2.5" fill="#D58F8E"/><path d="M44 64 Q50 60 56 64 L50 70Z" fill="#D9A064" /></g></svg><text x="602" y="580" text-anchor="middle" font-family="Helvetica, Arial" font-size="17" fill="#393C3B">Blueberry penguin</text><svg x="745" y="386" width="164" height="164" viewBox="0 0 100 100"><defs><clipPath id="c8"><circle cx="50" cy="50" r="50"/></clipPath></defs><g clip-path="url(#c8)"><rect width="100" height="100" fill="#F1DDBE"/><ellipse cx="50" cy="103" rx="42" ry="17" fill="#00000008"/><ellipse cx="50" cy="104" rx="34" ry="28" fill="#E2C090"/><ellipse cx="50" cy="103" rx="20" ry="23" fill="#B78561"/><path d="M32 30 Q14 24 13 44 L14 61 Q17 71 28 62 L35 41Z" fill="#B78561" /><path d="M68 30 Q86 24 87 44 L86 61 Q83 71 72 62 L65 41Z" fill="#B78561" /><ellipse cx="50" cy="57" rx="31" ry="28" fill="#E2C090"/><path d="M26 40 Q32 28 42 32 L40 51 Q26 62 23 50Z" fill="#B78561" /><ellipse cx="50" cy="68" rx="15" ry="10" fill="#F5E5CB"/><ellipse cx="38" cy="54" rx="2.5" ry="3.2" fill="#393C3B"/><ellipse cx="62" cy="54" rx="2.5" ry="3.2" fill="#393C3B"/><ellipse cx="29" cy="64" rx="4" ry="2.5" fill="#D58F8E"/><ellipse cx="71" cy="64" rx="4" ry="2.5" fill="#D58F8E"/><path d="M46 64 Q50 61 54 64 Q53 68 50 68 Q47 68 46 64Z" fill="#393C3B" /><path d="M50 68 L50 71 M44 71 Q47 75 50 71 Q53 75 56 71" fill="none" stroke="#393C3B" stroke-width="1.6" stroke-linecap="round"/></g></svg><text x="827" y="580" text-anchor="middle" font-family="Helvetica, Arial" font-size="17" fill="#393C3B">Biscuit puppy</text><svg x="970" y="386" width="164" height="164" viewBox="0 0 100 100"><defs><clipPath id="c9"><circle cx="50" cy="50" r="50"/></clipPath></defs><g clip-path="url(#c9)"><rect width="100" height="100" fill="#E5E7CC"/><ellipse cx="50" cy="103" rx="42" ry="17" fill="#00000008"/><ellipse cx="50" cy="104" rx="34" ry="28" fill="#9EB79A"/><ellipse cx="50" cy="103" rx="20" ry="23" fill="#DAE4B9"/><ellipse cx="32" cy="36" rx="12" ry="13" fill="#9EB79A"/><ellipse cx="68" cy="36" rx="12" ry="13" fill="#9EB79A"/><ellipse cx="50" cy="62" rx="32" ry="25" fill="#9EB79A"/><ellipse cx="50" cy="69" rx="22" ry="13" fill="#DAE4B9"/><ellipse cx="32" cy="37" rx="5.5" ry="6" fill="#DAE4B9"/><ellipse cx="68" cy="37" rx="5.5" ry="6" fill="#DAE4B9"/><ellipse cx="32.6" cy="38" rx="2.5" ry="3" fill="#393C3B"/><ellipse cx="67.4" cy="38" rx="2.5" ry="3" fill="#393C3B"/><ellipse cx="29" cy="64" rx="4" ry="2.5" fill="#D58F8E"/><ellipse cx="71" cy="64" rx="4" ry="2.5" fill="#D58F8E"/><path d="M42 63 Q50 70 58 63" fill="none" stroke="#393C3B" stroke-width="2.5" stroke-linecap="round"/></g></svg><text x="1052" y="580" text-anchor="middle" font-family="Helvetica, Arial" font-size="17" fill="#393C3B">Pond frog</text><svg x="70" y="617" width="164" height="164" viewBox="0 0 100 100"><defs><clipPath id="c10"><circle cx="50" cy="50" r="50"/></clipPath></defs><g clip-path="url(#c10)"><rect width="100" height="100" fill="#E8DFF0"/><ellipse cx="50" cy="103" rx="42" ry="17" fill="#00000008"/><ellipse cx="50" cy="104" rx="34" ry="28" fill="#A4ADB9"/><ellipse cx="50" cy="103" rx="20" ry="23" fill="#E6E9EA"/><path d="M22 48 Q16 20 22 18 Q37 22 42 35Z" fill="#A4ADB9" /><path d="M78 48 Q84 20 78 18 Q63 22 58 35Z" fill="#A4ADB9" /><path d="M24 38 L24 25 L35 35Z" fill="#D58F8E" /><path d="M76 38 L76 25 L65 35Z" fill="#D58F8E" /><ellipse cx="50" cy="57" rx="31" ry="28" fill="#A4ADB9"/><path d="M42 30 L46 42 L49 30 M52 30 L55 42 L59 31" fill="#E6E9EA" /><ellipse cx="50" cy="68" rx="15" ry="10" fill="#E6E9EA"/><ellipse cx="38" cy="54" rx="2.5" ry="3.2" fill="#393C3B"/><ellipse cx="62" cy="54" rx="2.5" ry="3.2" fill="#393C3B"/><ellipse cx="29" cy="64" rx="4" ry="2.5" fill="#D58F8E"/><ellipse cx="71" cy="64" rx="4" ry="2.5" fill="#D58F8E"/><path d="M46 64 Q50 61 54 64 Q53 68 50 68 Q47 68 46 64Z" fill="#393C3B" /><path d="M50 68 L50 71 M44 71 Q47 75 50 71 Q53 75 56 71" fill="none" stroke="#393C3B" stroke-width="1.6" stroke-linecap="round"/></g></svg><text x="152" y="811" text-anchor="middle" font-family="Helvetica, Arial" font-size="17" fill="#393C3B">Lilac cat</text><svg x="295" y="617" width="164" height="164" viewBox="0 0 100 100"><defs><clipPath id="c11"><circle cx="50" cy="50" r="50"/></clipPath></defs><g clip-path="url(#c11)"><rect width="100" height="100" fill="#F1DDDE"/><ellipse cx="50" cy="103" rx="42" ry="17" fill="#00000008"/><ellipse cx="50" cy="104" rx="34" ry="28" fill="#CFB6B4"/><ellipse cx="50" cy="103" rx="20" ry="23" fill="#F9E8DF"/><ellipse cx="35" cy="29" rx="10" ry="23" fill="#CFB6B4"/><ellipse cx="65" cy="29" rx="10" ry="23" fill="#CFB6B4"/><ellipse cx="35" cy="28" rx="4" ry="15" fill="#D58F8E"/><ellipse cx="65" cy="28" rx="4" ry="15" fill="#D58F8E"/><ellipse cx="50" cy="62" rx="28" ry="26" fill="#CFB6B4"/><ellipse cx="38" cy="58" rx="2.5" ry="3.2" fill="#393C3B"/><ellipse cx="62" cy="58" rx="2.5" ry="3.2" fill="#393C3B"/><ellipse cx="29" cy="64" rx="4" ry="2.5" fill="#D58F8E"/><ellipse cx="71" cy="64" rx="4" ry="2.5" fill="#D58F8E"/><path d="M46 64 Q50 61 54 64 Q53 68 50 68 Q47 68 46 64Z" fill="#393C3B" /><path d="M50 68 L50 71 M44 71 Q47 75 50 71 Q53 75 56 71" fill="none" stroke="#393C3B" stroke-width="1.6" stroke-linecap="round"/></g></svg><text x="377" y="811" text-anchor="middle" font-family="Helvetica, Arial" font-size="17" fill="#393C3B">Rose rabbit</text><svg x="520" y="617" width="164" height="164" viewBox="0 0 100 100"><defs><clipPath id="c12"><circle cx="50" cy="50" r="50"/></clipPath></defs><g clip-path="url(#c12)"><rect width="100" height="100" fill="#DDE7E1"/><ellipse cx="50" cy="103" rx="42" ry="17" fill="#00000008"/><ellipse cx="50" cy="104" rx="34" ry="28" fill="#D4BC99"/><ellipse cx="50" cy="103" rx="20" ry="23" fill="#F4E4C8"/><ellipse cx="25" cy="35" rx="12" ry="12" fill="#D4BC99"/><ellipse cx="75" cy="35" rx="12" ry="12" fill="#D4BC99"/><ellipse cx="25" cy="35" rx="6.36" ry="6.6000000000000005" fill="#F4E4C8"/><ellipse cx="75" cy="35" rx="6.36" ry="6.6000000000000005" fill="#F4E4C8"/><ellipse cx="50" cy="57" rx="31" ry="28" fill="#D4BC99"/><ellipse cx="50" cy="68" rx="15" ry="10" fill="#F4E4C8"/><ellipse cx="38" cy="54" rx="2.5" ry="3.2" fill="#393C3B"/><ellipse cx="62" cy="54" rx="2.5" ry="3.2" fill="#393C3B"/><ellipse cx="29" cy="64" rx="4" ry="2.5" fill="#D58F8E"/><ellipse cx="71" cy="64" rx="4" ry="2.5" fill="#D58F8E"/><path d="M46 64 Q50 61 54 64 Q53 68 50 68 Q47 68 46 64Z" fill="#393C3B" /><path d="M50 68 L50 71 M44 71 Q47 75 50 71 Q53 75 56 71" fill="none" stroke="#393C3B" stroke-width="1.6" stroke-linecap="round"/></g></svg><text x="602" y="811" text-anchor="middle" font-family="Helvetica, Arial" font-size="17" fill="#393C3B">Sage bear</text><svg x="745" y="617" width="164" height="164" viewBox="0 0 100 100"><defs><clipPath id="c13"><circle cx="50" cy="50" r="50"/></clipPath></defs><g clip-path="url(#c13)"><rect width="100" height="100" fill="#E4E1F0"/><ellipse cx="50" cy="103" rx="42" ry="17" fill="#00000008"/><ellipse cx="50" cy="104" rx="34" ry="28" fill="#BDA4AE"/><ellipse cx="50" cy="103" rx="20" ry="23" fill="#FCEDDF"/><path d="M22 48 Q16 20 22 18 Q37 22 42 35Z" fill="#BDA4AE" /><path d="M78 48 Q84 20 78 18 Q63 22 58 35Z" fill="#BDA4AE" /><path d="M24 38 L24 25 L35 35Z" fill="#393C3B" /><path d="M76 38 L76 25 L65 35Z" fill="#393C3B" /><ellipse cx="50" cy="57" rx="31" ry="28" fill="#BDA4AE"/><path d="M20 51 Q33 47 50 70 Q67 47 80 51 Q76 83 50 87 Q24 83 20 51Z" fill="#FCEDDF" /><ellipse cx="38" cy="54" rx="2.5" ry="3.2" fill="#393C3B"/><ellipse cx="62" cy="54" rx="2.5" ry="3.2" fill="#393C3B"/><ellipse cx="29" cy="64" rx="4" ry="2.5" fill="#D58F8E"/><ellipse cx="71" cy="64" rx="4" ry="2.5" fill="#D58F8E"/><path d="M46 64 Q50 61 54 64 Q53 68 50 68 Q47 68 46 64Z" fill="#393C3B" /><path d="M50 68 L50 71 M44 71 Q47 75 50 71 Q53 75 56 71" fill="none" stroke="#393C3B" stroke-width="1.6" stroke-linecap="round"/></g></svg><text x="827" y="811" text-anchor="middle" font-family="Helvetica, Arial" font-size="17" fill="#393C3B">Dusk fox</text><svg x="970" y="617" width="164" height="164" viewBox="0 0 100 100"><defs><clipPath id="c14"><circle cx="50" cy="50" r="50"/></clipPath></defs><g clip-path="url(#c14)"><rect width="100" height="100" fill="#F0E3CF"/><ellipse cx="50" cy="103" rx="42" ry="17" fill="#00000008"/><ellipse cx="50" cy="104" rx="34" ry="28" fill="#B5AAA0"/><ellipse cx="50" cy="103" rx="20" ry="23" fill="#F1E5D4"/><ellipse cx="25" cy="35" rx="16" ry="16" fill="#B5AAA0"/><ellipse cx="75" cy="35" rx="16" ry="16" fill="#B5AAA0"/><ellipse cx="25" cy="35" rx="8.48" ry="8.8" fill="#F1E5D4"/><ellipse cx="75" cy="35" rx="8.48" ry="8.8" fill="#F1E5D4"/><ellipse cx="50" cy="57" rx="31" ry="28" fill="#B5AAA0"/><ellipse cx="38" cy="54" rx="2.5" ry="3.2" fill="#393C3B"/><ellipse cx="62" cy="54" rx="2.5" ry="3.2" fill="#393C3B"/><ellipse cx="29" cy="64" rx="4" ry="2.5" fill="#D58F8E"/><ellipse cx="71" cy="64" rx="4" ry="2.5" fill="#D58F8E"/><ellipse cx="50" cy="64" rx="6" ry="8" fill="#393C3B"/></g></svg><text x="1052" y="811" text-anchor="middle" font-family="Helvetica, Arial" font-size="17" fill="#393C3B">Sand koala</text><svg x="70" y="848" width="164" height="164" viewBox="0 0 100 100"><defs><clipPath id="c15"><circle cx="50" cy="50" r="50"/></clipPath></defs><g clip-path="url(#c15)"><rect width="100" height="100" fill="#DEE5EF"/><ellipse cx="50" cy="103" rx="42" ry="17" fill="#00000008"/><ellipse cx="50" cy="104" rx="34" ry="28" fill="#F9F0E1"/><ellipse cx="50" cy="103" rx="20" ry="23" fill="#F9F0E1"/><ellipse cx="25" cy="35" rx="12" ry="12" fill="#586476"/><ellipse cx="75" cy="35" rx="12" ry="12" fill="#586476"/><ellipse cx="50" cy="57" rx="31" ry="28" fill="#F9F0E1"/><ellipse cx="37" cy="53" rx="9" ry="11" fill="#586476"/><ellipse cx="63" cy="53" rx="9" ry="11" fill="#586476"/><ellipse cx="38" cy="54" rx="2.5" ry="3.2" fill="#FFF8E9"/><ellipse cx="62" cy="54" rx="2.5" ry="3.2" fill="#FFF8E9"/><path d="M46 64 Q50 61 54 64 Q53 68 50 68 Q47 68 46 64Z" fill="#393C3B" /><path d="M50 68 L50 71 M44 71 Q47 75 50 71 Q53 75 56 71" fill="none" stroke="#393C3B" stroke-width="1.6" stroke-linecap="round"/></g></svg><text x="152" y="1042" text-anchor="middle" font-family="Helvetica, Arial" font-size="17" fill="#393C3B">Pebble panda</text><svg x="295" y="848" width="164" height="164" viewBox="0 0 100 100"><defs><clipPath id="c16"><circle cx="50" cy="50" r="50"/></clipPath></defs><g clip-path="url(#c16)"><rect width="100" height="100" fill="#D9E8E5"/><ellipse cx="50" cy="103" rx="42" ry="17" fill="#00000008"/><ellipse cx="50" cy="104" rx="34" ry="28" fill="#B89A7B"/><ellipse cx="50" cy="103" rx="20" ry="23" fill="#F8E7CC"/><ellipse cx="25" cy="35" rx="9" ry="9" fill="#B89A7B"/><ellipse cx="75" cy="35" rx="9" ry="9" fill="#B89A7B"/><ellipse cx="25" cy="35" rx="4.7700000000000005" ry="4.95" fill="#F8E7CC"/><ellipse cx="75" cy="35" rx="4.7700000000000005" ry="4.95" fill="#F8E7CC"/><ellipse cx="50" cy="57" rx="31" ry="28" fill="#B89A7B"/><ellipse cx="50" cy="68" rx="15" ry="10" fill="#F8E7CC"/><ellipse cx="38" cy="54" rx="2.5" ry="3.2" fill="#393C3B"/><ellipse cx="62" cy="54" rx="2.5" ry="3.2" fill="#393C3B"/><ellipse cx="29" cy="64" rx="4" ry="2.5" fill="#D58F8E"/><ellipse cx="71" cy="64" rx="4" ry="2.5" fill="#D58F8E"/><path d="M46 64 Q50 61 54 64 Q53 68 50 68 Q47 68 46 64Z" fill="#393C3B" /><path d="M50 68 L50 71 M44 71 Q47 75 50 71 Q53 75 56 71" fill="none" stroke="#393C3B" stroke-width="1.6" stroke-linecap="round"/></g></svg><text x="377" y="1042" text-anchor="middle" font-family="Helvetica, Arial" font-size="17" fill="#393C3B">River otter</text><svg x="520" y="848" width="164" height="164" viewBox="0 0 100 100"><defs><clipPath id="c17"><circle cx="50" cy="50" r="50"/></clipPath></defs><g clip-path="url(#c17)"><rect width="100" height="100" fill="#F2E0CD"/><ellipse cx="50" cy="103" rx="42" ry="17" fill="#00000008"/><ellipse cx="50" cy="104" rx="34" ry="28" fill="#797E93"/><ellipse cx="50" cy="103" rx="20" ry="23" fill="#FFF1D9"/><ellipse cx="50" cy="53" rx="31" ry="36" fill="#797E93"/><path d="M26 58 C20 31 42 26 50 41 C58 26 80 31 74 58 Q77 85 50 86 Q23 85 26 58Z" fill="#FFF1D9" /><ellipse cx="38" cy="54" rx="2.5" ry="3.2" fill="#393C3B"/><ellipse cx="62" cy="54" rx="2.5" ry="3.2" fill="#393C3B"/><ellipse cx="29" cy="64" rx="4" ry="2.5" fill="#D58F8E"/><ellipse cx="71" cy="64" rx="4" ry="2.5" fill="#D58F8E"/><path d="M44 64 Q50 60 56 64 L50 70Z" fill="#D9A064" /></g></svg><text x="602" y="1042" text-anchor="middle" font-family="Helvetica, Arial" font-size="17" fill="#393C3B">Sunrise penguin</text><svg x="745" y="848" width="164" height="164" viewBox="0 0 100 100"><defs><clipPath id="c18"><circle cx="50" cy="50" r="50"/></clipPath></defs><g clip-path="url(#c18)"><rect width="100" height="100" fill="#E7E2D1"/><ellipse cx="50" cy="103" rx="42" ry="17" fill="#00000008"/><ellipse cx="50" cy="104" rx="34" ry="28" fill="#BB8E6C"/><ellipse cx="50" cy="103" rx="20" ry="23" fill="#75594B"/><path d="M32 30 Q14 24 13 44 L14 61 Q17 71 28 62 L35 41Z" fill="#75594B" /><path d="M68 30 Q86 24 87 44 L86 61 Q83 71 72 62 L65 41Z" fill="#75594B" /><ellipse cx="50" cy="57" rx="31" ry="28" fill="#BB8E6C"/><path d="M26 40 Q32 28 42 32 L40 51 Q26 62 23 50Z" fill="#75594B" /><ellipse cx="50" cy="68" rx="15" ry="10" fill="#F5E5CB"/><ellipse cx="38" cy="54" rx="2.5" ry="3.2" fill="#393C3B"/><ellipse cx="62" cy="54" rx="2.5" ry="3.2" fill="#393C3B"/><ellipse cx="29" cy="64" rx="4" ry="2.5" fill="#D58F8E"/><ellipse cx="71" cy="64" rx="4" ry="2.5" fill="#D58F8E"/><path d="M46 64 Q50 61 54 64 Q53 68 50 68 Q47 68 46 64Z" fill="#393C3B" /><path d="M50 68 L50 71 M44 71 Q47 75 50 71 Q53 75 56 71" fill="none" stroke="#393C3B" stroke-width="1.6" stroke-linecap="round"/></g></svg><text x="827" y="1042" text-anchor="middle" font-family="Helvetica, Arial" font-size="17" fill="#393C3B">Maple puppy</text><svg x="970" y="848" width="164" height="164" viewBox="0 0 100 100"><defs><clipPath id="c19"><circle cx="50" cy="50" r="50"/></clipPath></defs><g clip-path="url(#c19)"><rect width="100" height="100" fill="#F1DDE2"/><ellipse cx="50" cy="103" rx="42" ry="17" fill="#00000008"/><ellipse cx="50" cy="104" rx="34" ry="28" fill="#BAC3A0"/><ellipse cx="50" cy="103" rx="20" ry="23" fill="#ECEDD0"/><ellipse cx="32" cy="36" rx="12" ry="13" fill="#BAC3A0"/><ellipse cx="68" cy="36" rx="12" ry="13" fill="#BAC3A0"/><ellipse cx="50" cy="62" rx="32" ry="25" fill="#BAC3A0"/><ellipse cx="50" cy="69" rx="22" ry="13" fill="#ECEDD0"/><ellipse cx="32" cy="37" rx="5.5" ry="6" fill="#ECEDD0"/><ellipse cx="68" cy="37" rx="5.5" ry="6" fill="#ECEDD0"/><ellipse cx="32.6" cy="38" rx="2.5" ry="3" fill="#393C3B"/><ellipse cx="67.4" cy="38" rx="2.5" ry="3" fill="#393C3B"/><ellipse cx="29" cy="64" rx="4" ry="2.5" fill="#D58F8E"/><ellipse cx="71" cy="64" rx="4" ry="2.5" fill="#D58F8E"/><path d="M42 63 Q50 70 58 63" fill="none" stroke="#393C3B" stroke-width="2.5" stroke-linecap="round"/></g></svg><text x="1052" y="1042" text-anchor="middle" font-family="Helvetica, Arial" font-size="17" fill="#393C3B">Matcha frog</text></svg>
