<svg xmlns="http://www.w3.org/2000/svg" width="100" height="100" viewBox="0 0 100 100"><rect width="100" height="100" fill="#D9E8E5"/><ellipse cx="50" cy="103" rx="42" ry="17" fill="#00000008"/><ellipse cx="50" cy="104" rx="34" ry="28" fill="#B89A7B"/><ellipse cx="50" cy="103" rx="20" ry="23" fill="#F8E7CC"/><ellipse cx="25" cy="35" rx="9" ry="9" fill="#B89A7B"/><ellipse cx="75" cy="35" rx="9" ry="9" fill="#B89A7B"/><ellipse cx="25" cy="35" rx="4.7700000000000005" ry="4.95" fill="#F8E7CC"/><ellipse cx="75" cy="35" rx="4.7700000000000005" ry="4.95" fill="#F8E7CC"/><ellipse cx="50" cy="57" rx="31" ry="28" fill="#B89A7B"/><ellipse cx="50" cy="68" rx="15" ry="10" fill="#F8E7CC"/><ellipse cx="38" cy="54" rx="2.5" ry="3.2" fill="#393C3B"/><ellipse cx="62" cy="54" rx="2.5" ry="3.2" fill="#393C3B"/><ellipse cx="29" cy="64" rx="4" ry="2.5" fill="#D58F8E"/><ellipse cx="71" cy="64" rx="4" ry="2.5" fill="#D58F8E"/><path d="M46 64 Q50 61 54 64 Q53 68 50 68 Q47 68 46 64Z" fill="#393C3B" /><path d="M50 68 L50 71 M44 71 Q47 75 50 71 Q53 75 56 71" fill="none" stroke="#393C3B" stroke-width="1.6" stroke-linecap="round"/></svg>
